<svg xmlns="http://www.w3.org/2000/svg" xmlns:xlink="http://www.w3.org/1999/xlink" width="72" zoomAndPan="magnify" viewBox="0 0 54 54" height="72" preserveAspectRatio="xMidYMid meet" version="1.0"><defs><clipPath id="7c30352915"><path d="M 2.089844 11.148438 L 52 11.148438 L 52 41.867188 L 2.089844 41.867188 Z M 2.089844 11.148438 " clip-rule="nonzero"/></clipPath><clipPath id="149af9eb21"><path d="M 2.089844 11.148438 L 28 11.148438 L 28 41.867188 L 2.089844 41.867188 Z M 2.089844 11.148438 " clip-rule="nonzero"/></clipPath></defs><g clip-path="url(#7c30352915)"><path fill="#70ffa9" d="M 27.09375 41.832031 C 25.632812 41.820312 24.226562 41.238281 23.195312 40.203125 L 4.261719 21.347656 C 2.085938 19.175781 2.082031 15.65625 4.253906 13.484375 C 6.425781 11.308594 9.953125 11.308594 12.128906 13.476562 L 27.125 28.421875 L 42.125 13.476562 C 44.296875 11.308594 47.828125 11.308594 49.996094 13.484375 C 52.171875 15.65625 52.164062 19.175781 49.988281 21.347656 L 31.054688 40.203125 C 30.003906 41.25 28.578125 41.839844 27.09375 41.832031 Z M 27.09375 41.832031 " fill-opacity="1" fill-rule="nonzero"/></g><g clip-path="url(#149af9eb21)"><path fill="#70ffa9" d="M 27.09375 41.832031 C 25.632812 41.820312 24.226562 41.238281 23.191406 40.203125 L 4.261719 21.34375 C 2.085938 19.175781 2.082031 15.65625 4.253906 13.484375 C 6.425781 11.308594 9.949219 11.308594 12.128906 13.476562 L 27.125 28.421875 L 27.148438 28.394531 L 27.148438 41.832031 C 27.132812 41.832031 27.113281 41.832031 27.09375 41.832031 Z M 27.09375 41.832031 " fill-opacity="1" fill-rule="nonzero"/></g></svg>
