<svg xmlns="http://www.w3.org/2000/svg" xmlns:xlink="http://www.w3.org/1999/xlink" width="72" zoomAndPan="magnify" viewBox="0 0 54 54" height="72" preserveAspectRatio="xMidYMid meet" version="1.0"><defs><clipPath id="dc418f78b8"><path d="M 2.089844 11 L 52 11 L 52 41.867188 L 2.089844 41.867188 Z M 2.089844 11 " clip-rule="nonzero"/></clipPath><clipPath id="b3d48470ec"><path d="M 2.089844 11 L 28 11 L 28 41.867188 L 2.089844 41.867188 Z M 2.089844 11 " clip-rule="nonzero"/></clipPath></defs><g clip-path="url(#dc418f78b8)"><path fill="#ffdcc5" d="M 27.09375 11.183594 C 25.632812 11.195312 24.226562 11.777344 23.195312 12.808594 L 4.261719 31.667969 C 2.085938 33.839844 2.082031 37.359375 4.253906 39.53125 C 6.425781 41.703125 9.953125 41.703125 12.128906 39.535156 L 27.125 24.59375 L 42.125 39.535156 C 44.296875 41.703125 47.828125 41.703125 49.996094 39.53125 C 52.171875 37.359375 52.164062 33.839844 49.988281 31.667969 L 31.054688 12.808594 C 30.003906 11.765625 28.578125 11.175781 27.09375 11.183594 Z M 27.09375 11.183594 " fill-opacity="1" fill-rule="nonzero"/></g><g clip-path="url(#b3d48470ec)"><path fill="#ffdcc5" d="M 27.09375 11.183594 C 25.632812 11.195312 24.226562 11.777344 23.191406 12.808594 L 4.261719 31.671875 C 2.085938 33.839844 2.082031 37.359375 4.253906 39.53125 C 6.425781 41.703125 9.949219 41.703125 12.128906 39.535156 L 27.125 24.59375 L 27.148438 24.617188 L 27.148438 11.183594 C 27.132812 11.183594 27.113281 11.183594 27.09375 11.183594 Z M 27.09375 11.183594 " fill-opacity="1" fill-rule="nonzero"/></g></svg>